<svg width="24" height="24" viewBox="0 0 24 24" fill="none" xmlns="http://www.w3.org/2000/svg">
<path d="M12.5 6.5C12.5 5.17392 13.0268 3.90215 13.9645 2.96447C14.9021 2.02678 16.1739 1.5 17.5 1.5C18.8261 1.5 20.0979 2.02678 21.0355 2.96447C21.9732 3.90215 22.5 5.17392 22.5 6.5C22.5 7.82608 21.9732 9.09785 21.0355 10.0355C20.0979 10.9732 18.8261 11.5 17.5 11.5C16.1739 11.5 14.9021 10.9732 13.9645 10.0355C13.0268 9.09785 12.5 7.82608 12.5 6.5ZM2 2H11V11H2V2ZM2 13H11V22H2V13ZM13 13H22V22H13V13Z" fill="black"/>
</svg>
