<svg width="19" height="22" viewBox="0 0 19 22" fill="none" xmlns="http://www.w3.org/2000/svg">
<path d="M9.50002 10.6562C8.83168 10.6562 8.16989 10.5229 7.55243 10.2638C6.93497 10.0046 6.37393 9.62482 5.90135 9.14602C5.42876 8.66722 5.05389 8.0988 4.79813 7.47321C4.54237 6.84763 4.41073 6.17713 4.41073 5.5C4.41073 4.82287 4.54237 4.15237 4.79813 3.52679C5.05389 2.9012 5.42876 2.33278 5.90135 1.85398C6.37393 1.37518 6.93497 0.995372 7.55243 0.736246C8.16989 0.47712 8.83168 0.34375 9.50002 0.34375C10.1684 0.34375 10.8301 0.47712 11.4476 0.736246C12.0651 0.995372 12.6261 1.37518 13.0987 1.85398C13.5713 2.33278 13.9461 2.9012 14.2019 3.52679C14.4577 4.15237 14.5893 4.82287 14.5893 5.5C14.5893 6.17713 14.4577 6.84763 14.2019 7.47321C13.9461 8.0988 13.5713 8.66722 13.0987 9.14602C12.6261 9.62482 12.0651 10.0046 11.4476 10.2638C10.8301 10.5229 10.1684 10.6562 9.50002 10.6562ZM8.20649 13.0625H10.7935C11.2049 13.0625 11.5357 13.3977 11.5357 13.8145C11.5357 13.9949 11.4721 14.1668 11.3576 14.3043L10.1956 15.6793L11.5103 20.625H11.5357L13.0031 14.6738C13.0964 14.3 13.4739 14.0723 13.8302 14.2098C16.4554 15.2238 18.3214 17.802 18.3214 20.8184C18.3214 21.4672 17.7998 21.9957 17.1594 21.9957L1.84064 22C1.20024 22 0.678589 21.4715 0.678589 20.8227C0.678589 17.8062 2.54466 15.2281 5.16988 14.2141C5.52613 14.0766 5.90359 14.3043 5.99689 14.6781L7.4643 20.6293H7.48975L8.80448 15.6836L7.64243 14.3086C7.52792 14.1711 7.4643 13.9992 7.4643 13.8188C7.4643 13.402 7.79511 13.0668 8.20649 13.0668V13.0625Z" fill="black"/>
</svg>
