<svg width="20" height="20" viewBox="0 0 20 20" fill="none" xmlns="http://www.w3.org/2000/svg">
<path d="M13.7307 2.50332C13.8699 2.51582 13.9307 2.68582 13.8307 2.78499L6.89736 9.71832C6.81903 9.7967 6.76295 9.89448 6.73485 10.0017L5.90152 13.1933C5.87401 13.2988 5.87457 13.4096 5.90313 13.5148C5.93169 13.62 5.98727 13.7159 6.06435 13.793C6.14143 13.8701 6.23732 13.9257 6.34252 13.9542C6.44771 13.9828 6.55855 13.9833 6.66402 13.9558L9.85486 13.1225C9.96212 13.0942 10.0599 13.0378 10.1382 12.9592L17.1699 5.92749C17.1919 5.90491 17.2199 5.8891 17.2506 5.88193C17.2813 5.87477 17.3134 5.87656 17.3431 5.88708C17.3728 5.8976 17.3989 5.91642 17.4183 5.9413C17.4376 5.96618 17.4495 5.99609 17.4524 6.02749C17.7451 8.81884 17.7283 11.634 17.4024 14.4217C17.2165 16.0092 15.9407 17.255 14.359 17.4325C11.4621 17.7534 8.53849 17.7534 5.64152 17.4325C4.05902 17.255 2.78319 16.0092 2.59735 14.4217C2.25401 11.4842 2.25401 8.51666 2.59735 5.57916C2.78319 3.99082 4.05902 2.74499 5.64152 2.56832C8.32862 2.27047 11.0392 2.24869 13.7307 2.50332Z" fill="#B48824"/>
<path d="M14.8523 3.53084C14.8716 3.51144 14.8946 3.49605 14.9199 3.48554C14.9452 3.47504 14.9724 3.46964 14.9998 3.46964C15.0272 3.46964 15.0543 3.47504 15.0796 3.48554C15.1049 3.49605 15.1279 3.51144 15.1473 3.53084L16.3256 4.71001C16.3645 4.74906 16.3864 4.80195 16.3864 4.85709C16.3864 4.91223 16.3645 4.96512 16.3256 5.00417L9.41478 11.9167C9.3885 11.9429 9.3557 11.9616 9.31978 11.9708L7.72478 12.3875C7.68962 12.3967 7.65267 12.3965 7.61761 12.387C7.58254 12.3774 7.55058 12.3589 7.52489 12.3332C7.49919 12.3075 7.48067 12.2756 7.47115 12.2405C7.46163 12.2054 7.46144 12.1685 7.47061 12.1333L7.88728 10.5383C7.89655 10.5024 7.91525 10.4696 7.94144 10.4433L14.8523 3.53084Z" fill="#B48824"/>
</svg>
