<svg width="24" height="24" viewBox="0 0 24 24" fill="none" xmlns="http://www.w3.org/2000/svg">
<path d="M16.4766 3.004C16.6436 3.019 16.7166 3.223 16.5966 3.342L8.27663 11.662C8.18264 11.756 8.11534 11.8734 8.08163 12.002L7.08163 15.832C7.04862 15.9586 7.04928 16.0916 7.08356 16.2178C7.11784 16.344 7.18453 16.4591 7.27702 16.5516C7.36952 16.6441 7.48459 16.7108 7.61082 16.7451C7.73706 16.7793 7.87006 16.78 7.99663 16.747L11.8256 15.747C11.9544 15.713 12.0717 15.6454 12.1656 15.551L20.6036 7.113C20.63 7.0859 20.6636 7.06693 20.7005 7.05833C20.7373 7.04974 20.7759 7.05188 20.8115 7.06451C20.8472 7.07713 20.8785 7.09971 20.9017 7.12957C20.925 7.15943 20.9392 7.19533 20.9426 7.233C21.2939 10.5826 21.2737 13.9608 20.8826 17.306C20.6596 19.211 19.1286 20.706 17.2306 20.919C13.7543 21.3041 10.246 21.3041 6.76963 20.919C4.87063 20.706 3.33963 19.211 3.11663 17.306C2.70461 13.781 2.70461 10.22 3.11663 6.695C3.33963 4.789 4.87063 3.294 6.76963 3.082C9.99414 2.72457 13.2468 2.69844 16.4766 3.004Z" fill="white"/>
<path d="M17.8231 4.23702C17.8463 4.21374 17.8739 4.19527 17.9043 4.18266C17.9347 4.17006 17.9672 4.16357 18.0001 4.16357C18.033 4.16357 18.0656 4.17006 18.0959 4.18266C18.1263 4.19527 18.1539 4.21374 18.1771 4.23702L19.5911 5.65202C19.6378 5.69888 19.6641 5.76235 19.6641 5.82852C19.6641 5.89469 19.6378 5.95816 19.5911 6.00502L11.2981 14.3C11.2666 14.3315 11.2272 14.3539 11.1841 14.365L9.27012 14.865C9.22793 14.876 9.1836 14.8758 9.14152 14.8644C9.09944 14.853 9.06109 14.8307 9.03025 14.7999C8.99942 14.7691 8.97719 14.7307 8.96577 14.6886C8.95434 14.6465 8.95412 14.6022 8.96512 14.56L9.46512 12.646C9.47625 12.6029 9.49869 12.5636 9.53012 12.532L17.8231 4.23702Z" fill="white"/>
</svg>
