<svg width="24" height="24" viewBox="0 0 24 24" fill="none" xmlns="http://www.w3.org/2000/svg">
<path fill-rule="evenodd" clip-rule="evenodd" d="M0.75 12C0.75 5.787 5.787 0.75 12 0.75C14.725 0.75 17.224 1.72 19.17 3.33L20.5 2L21.5 3V7.5H17L16 6.5L17.392 5.108C15.8545 3.90042 13.955 3.2459 12 3.25C10.1944 3.25041 8.43306 3.80942 6.95766 4.85037C5.48227 5.89131 4.36504 7.3632 3.75921 9.06418C3.15337 10.7652 3.08861 12.6119 3.57378 14.3511C4.05896 16.0904 5.07033 17.6369 6.46917 18.7787C7.86801 19.9204 9.58582 20.6015 11.387 20.7284C13.1882 20.8553 14.9845 20.4218 16.5296 19.4875C18.0747 18.5532 19.293 17.1637 20.0172 15.5097C20.7415 13.8557 20.9363 12.0181 20.575 10.249L23.025 9.751C23.1743 10.4803 23.2493 11.23 23.25 12C23.25 18.213 18.213 23.25 12 23.25C5.787 23.25 0.75 18.213 0.75 12ZM15.25 9.75C15.25 10.612 14.9076 11.4386 14.2981 12.0481C13.6886 12.6576 12.862 13 12 13C11.138 13 10.3114 12.6576 9.7019 12.0481C9.09241 11.4386 8.75 10.612 8.75 9.75C8.75 8.88805 9.09241 8.0614 9.7019 7.4519C10.3114 6.84241 11.138 6.5 12 6.5C12.862 6.5 13.6886 6.84241 14.2981 7.4519C14.9076 8.0614 15.25 8.88805 15.25 9.75ZM18.263 15.654L18.041 15.548C16.1534 14.6518 14.0896 14.1882 12 14.191C9.84 14.191 7.79 14.678 5.959 15.548L5.737 15.654C6.37564 16.7484 7.28998 17.6564 8.38888 18.2873C9.48778 18.9183 10.7328 19.2502 12 19.25C13.2672 19.2502 14.5122 18.9183 15.6111 18.2873C16.71 17.6564 17.6244 16.7484 18.263 15.654Z" fill="black"/>
</svg>
