<svg width="34" height="28" viewBox="0 0 34 28" fill="none" xmlns="http://www.w3.org/2000/svg">
<path fill-rule="evenodd" clip-rule="evenodd" d="M16.9997 4C16.2336 4 15.4751 4.15089 14.7674 4.44404C14.0596 4.73719 13.4166 5.16687 12.8749 5.70855C12.3332 6.25022 11.9035 6.89328 11.6104 7.60102C11.3172 8.30875 11.1663 9.06729 11.1663 9.83334C11.1663 10.5994 11.3172 11.3579 11.6104 12.0657C11.9035 12.7734 12.3332 13.4164 12.8749 13.9581C13.4166 14.4998 14.0596 14.9295 14.7674 15.2226C15.4751 15.5158 16.2336 15.6667 16.9997 15.6667C18.5468 15.6667 20.0305 15.0521 21.1245 13.9581C22.2184 12.8642 22.833 11.3804 22.833 9.83334C22.833 8.28624 22.2184 6.80251 21.1245 5.70855C20.0305 4.61458 18.5468 4 16.9997 4ZM14.4997 17.3333C12.7316 17.3333 11.0359 18.0357 9.78563 19.286C8.53539 20.5362 7.83301 22.2319 7.83301 24C7.83301 24.8841 8.1842 25.7319 8.80932 26.357C9.43444 26.9821 10.2823 27.3333 11.1663 27.3333H22.833C23.7171 27.3333 24.5649 26.9821 25.19 26.357C25.8152 25.7319 26.1663 24.8841 26.1663 24C26.1663 22.2319 25.464 20.5362 24.2137 19.286C22.9635 18.0357 21.2678 17.3333 19.4997 17.3333H14.4997ZM25.8663 12.1733C26.3962 10.1556 26.2232 8.01754 25.3759 6.11118C24.5286 4.20483 23.0575 2.64378 21.2047 1.685C21.9107 1.20253 22.7142 0.881187 23.5582 0.743729C24.4022 0.606271 25.2661 0.656059 26.0888 0.88957C26.9114 1.12308 27.6726 1.5346 28.3186 2.09499C28.9645 2.65538 29.4793 3.35092 29.8266 4.13238C30.1738 4.91383 30.345 5.76208 30.3281 6.61705C30.3111 7.47201 30.1063 8.31279 29.7283 9.07984C29.3503 9.84689 28.8083 10.5214 28.1406 11.0557C27.4729 11.59 26.6959 11.971 25.8647 12.1717L25.8663 12.1733ZM29.4997 24H30.333C31.2171 24 32.0649 23.6488 32.69 23.0237C33.3152 22.3986 33.6663 21.5507 33.6663 20.6667C33.6663 18.8986 32.964 17.2029 31.7137 15.9526C30.4635 14.7024 28.7678 14 26.9997 14H25.1663C24.9396 14.444 24.6771 14.8687 24.3813 15.27C25.9339 16.1384 27.2266 17.4052 28.1263 18.9398C29.026 20.4743 29.5001 22.2211 29.4997 24ZM3.66634 6.5C3.66609 5.43798 3.95577 4.39605 4.50414 3.48656C5.05252 2.57707 5.83877 1.83454 6.77812 1.33905C7.71747 0.843568 8.77427 0.613924 9.83453 0.674889C10.8948 0.735853 11.9183 1.08511 12.7947 1.685C10.9401 2.64171 9.46744 4.20258 8.62013 6.10963C7.77282 8.01669 7.60157 10.1558 8.13467 12.1733C6.861 11.8668 5.7276 11.1404 4.91702 10.1113C4.10645 9.0821 3.6659 7.81004 3.66634 6.5ZM8.83301 14H6.99967C5.23156 14 3.53587 14.7024 2.28563 15.9526C1.03539 17.2029 0.333008 18.8986 0.333008 20.6667C0.333008 21.5507 0.684197 22.3986 1.30932 23.0237C1.93444 23.6488 2.78229 24 3.66634 24H4.49967C4.49923 22.2211 4.97331 20.4743 5.87302 18.9398C6.77273 17.4052 8.0655 16.1384 9.61801 15.27C9.32224 14.8687 9.05971 14.444 8.83301 14Z" fill="white"/>
</svg>
